<mxfile host="65bd71144e">
    <diagram id="dz4JyCz4ICa8bXvWnCkT" name="Page-1">
        <mxGraphModel dx="6312" dy="5060" grid="0" gridSize="10" guides="1" tooltips="1" connect="1" arrows="1" fold="1" page="1" pageScale="1" pageWidth="3000" pageHeight="3000" math="0" shadow="0">
            <root>
                <mxCell id="0"/>
                <mxCell id="1" parent="0"/>
                <mxCell id="2" value="" style="whiteSpace=wrap;html=1;aspect=fixed;strokeWidth=10;fontFamily=Tahoma;fontSize=20;fillColor=none;rounded=1;" vertex="1" parent="1">
                    <mxGeometry x="750" y="-630" width="513.47" height="513.47" as="geometry"/>
                </mxCell>
                <mxCell id="3" value="" style="shape=mxgraph.cisco.computers_and_peripherals.web_browser;html=1;pointerEvents=1;dashed=0;fillColor=#036897;strokeColor=#ffffff;strokeWidth=2;verticalLabelPosition=bottom;verticalAlign=top;align=center;outlineConnect=0;rounded=1;" vertex="1" parent="1">
                    <mxGeometry x="-520" y="73.47" width="106.56" height="110" as="geometry"/>
                </mxCell>
                <mxCell id="4" value="" style="shape=mxgraph.cisco.servers.file_server;html=1;pointerEvents=1;dashed=0;fillColor=#036897;strokeColor=#ffffff;strokeWidth=2;verticalLabelPosition=bottom;verticalAlign=top;align=center;outlineConnect=0;rounded=1;" vertex="1" parent="1">
                    <mxGeometry x="1081.09" y="-498.47" width="87.83" height="118.47" as="geometry"/>
                </mxCell>
                <mxCell id="5" value="" style="shape=mxgraph.cisco.storage.relational_database;html=1;pointerEvents=1;dashed=0;fillColor=#036897;strokeColor=#ffffff;strokeWidth=2;verticalLabelPosition=bottom;verticalAlign=top;align=center;outlineConnect=0;fontFamily=Helvetica;fontSize=12;fontColor=default;rounded=1;" vertex="1" parent="1">
                    <mxGeometry x="1070" y="-303" width="80" height="93.33" as="geometry"/>
                </mxCell>
                <mxCell id="6" value="" style="shape=mxgraph.cisco.servers.standard_host;html=1;pointerEvents=1;dashed=0;fillColor=#036897;strokeColor=#ffffff;strokeWidth=2;verticalLabelPosition=bottom;verticalAlign=top;align=center;outlineConnect=0;rounded=1;" vertex="1" parent="1">
                    <mxGeometry x="810" y="-476.78999999999996" width="73" height="105.26" as="geometry"/>
                </mxCell>
                <mxCell id="7" value="" style="shape=mxgraph.cisco.wireless.ground_terminal;html=1;pointerEvents=1;dashed=0;fillColor=#036897;strokeColor=#ffffff;strokeWidth=2;verticalLabelPosition=bottom;verticalAlign=top;align=center;outlineConnect=0;rounded=1;" vertex="1" parent="1">
                    <mxGeometry x="-236.5" y="-740" width="99" height="122" as="geometry"/>
                </mxCell>
                <mxCell id="8" value="" style="shape=mxgraph.cisco.storage.cloud;html=1;pointerEvents=1;dashed=0;fillColor=#036897;strokeColor=#ffffff;strokeWidth=2;verticalLabelPosition=bottom;verticalAlign=top;align=center;outlineConnect=0;rounded=1;" vertex="1" parent="1">
                    <mxGeometry x="-290" y="-690" width="186" height="106" as="geometry"/>
                </mxCell>
                <mxCell id="9" value="&lt;b&gt;&lt;font style=&quot;font-size: 20px;&quot; face=&quot;Tahoma&quot;&gt;INTERNET&lt;/font&gt;&lt;/b&gt;" style="text;html=1;align=center;verticalAlign=middle;resizable=0;points=[];autosize=1;strokeColor=none;fillColor=none;rounded=1;" vertex="1" parent="1">
                    <mxGeometry x="-256.5" y="-581.79" width="130" height="40" as="geometry"/>
                </mxCell>
                <mxCell id="10" value="&lt;font face=&quot;Tahoma&quot;&gt;&lt;span style=&quot;font-size: 20px;&quot;&gt;&lt;b&gt;WEB CLIENT&lt;/b&gt;&lt;/span&gt;&lt;/font&gt;" style="text;html=1;align=center;verticalAlign=middle;resizable=0;points=[];autosize=1;rounded=1;" vertex="1" parent="1">
                    <mxGeometry x="-541.72" y="193.66999999999996" width="150" height="40" as="geometry"/>
                </mxCell>
                <mxCell id="11" value="&lt;b&gt;&lt;font style=&quot;font-size: 20px;&quot; face=&quot;Tahoma&quot;&gt;WEB SERVER&lt;br&gt;(NGINX)&lt;br&gt;&lt;/font&gt;&lt;/b&gt;" style="text;html=1;align=center;verticalAlign=middle;resizable=0;points=[];autosize=1;strokeColor=none;fillColor=none;rounded=1;" vertex="1" parent="1">
                    <mxGeometry x="766.5" y="-371.53" width="160" height="60" as="geometry"/>
                </mxCell>
                <mxCell id="12" value="&lt;font face=&quot;Tahoma&quot;&gt;&lt;span style=&quot;font-size: 20px;&quot;&gt;&lt;b&gt;DATABASE&lt;br&gt;(MySQL)&lt;br&gt;&lt;/b&gt;&lt;/span&gt;&lt;/font&gt;" style="text;html=1;align=center;verticalAlign=middle;resizable=0;points=[];autosize=1;strokeColor=none;fillColor=none;rounded=1;" vertex="1" parent="1">
                    <mxGeometry x="1045" y="-220" width="130" height="60" as="geometry"/>
                </mxCell>
                <mxCell id="13" value="&lt;b&gt;&lt;font style=&quot;font-size: 20px;&quot; face=&quot;Tahoma&quot;&gt;APPLICATION SERVER&lt;br&gt;(Python 3.12)&lt;br&gt;&lt;/font&gt;&lt;/b&gt;" style="text;html=1;align=center;verticalAlign=middle;resizable=0;points=[];autosize=1;strokeColor=none;fillColor=none;rounded=1;" vertex="1" parent="1">
                    <mxGeometry x="1000" y="-380" width="250" height="60" as="geometry"/>
                </mxCell>
                <mxCell id="14" value="&lt;b&gt;&lt;font style=&quot;font-size: 20px;&quot; face=&quot;Tahoma&quot;&gt;CODE BASE&lt;/font&gt;&lt;/b&gt;" style="text;html=1;align=center;verticalAlign=middle;resizable=0;points=[];autosize=1;strokeColor=none;fillColor=none;rounded=1;" vertex="1" parent="1">
                    <mxGeometry x="766.5" y="-210" width="140" height="40" as="geometry"/>
                </mxCell>
                <mxCell id="15" value="" style="line;strokeWidth=4;direction=west;html=1;perimeter=backbonePerimeter;points=[];outlineConnect=0;fontFamily=Tahoma;fontSize=20;fillColor=none;rotation=0;rounded=1;" vertex="1" parent="1">
                    <mxGeometry x="750" y="-550" width="510" height="10" as="geometry"/>
                </mxCell>
                <mxCell id="16" value="" style="points=[[0.015,0.015,0],[0.985,0.015,0],[0.985,0.985,0],[0.015,0.985,0],[0.25,0,0],[0.5,0,0],[0.75,0,0],[1,0.25,0],[1,0.5,0],[1,0.75,0],[0.75,1,0],[0.5,1,0],[0.25,1,0],[0,0.75,0],[0,0.5,0],[0,0.25,0]];verticalLabelPosition=bottom;html=1;verticalAlign=top;aspect=fixed;align=center;pointerEvents=1;shape=mxgraph.cisco19.dns_server;fillColor=#005073;strokeColor=none;strokeWidth=10;fontFamily=Tahoma;fontSize=20;rounded=1;" vertex="1" parent="1">
                    <mxGeometry x="40" y="-694.79" width="78.65" height="143" as="geometry"/>
                </mxCell>
                <mxCell id="17" value="" style="aspect=fixed;pointerEvents=1;shadow=0;dashed=0;html=1;strokeColor=none;labelPosition=center;verticalLabelPosition=bottom;verticalAlign=top;align=center;fillColor=#00188D;shape=mxgraph.mscae.enterprise.folder;strokeWidth=10;fontFamily=Tahoma;fontSize=20;rounded=1;" vertex="1" parent="1">
                    <mxGeometry x="790.5700000000002" y="-295.8299999999999" width="91.86" height="79" as="geometry"/>
                </mxCell>
                <mxCell id="35" value="" style="edgeStyle=none;html=1;" edge="1" parent="1" source="18" target="15">
                    <mxGeometry relative="1" as="geometry"/>
                </mxCell>
                <mxCell id="18" value="&lt;b&gt;&lt;font style=&quot;font-size: 29px;&quot; face=&quot;Tahoma&quot;&gt;8.8.8.8&lt;/font&gt;&lt;/b&gt;" style="text;html=1;align=center;verticalAlign=middle;resizable=0;points=[];autosize=1;strokeColor=none;fillColor=none;rounded=1;" vertex="1" parent="1">
                    <mxGeometry x="926.5" y="-611.73" width="120" height="50" as="geometry"/>
                </mxCell>
                <mxCell id="19" value="" style="shape=mxgraph.cisco.storage.cloud;pointerEvents=1;dashed=0;fillColor=#036897;strokeColor=#ffffff;strokeWidth=2;verticalLabelPosition=bottom;verticalAlign=top;align=center;outlineConnect=0;rounded=1;" vertex="1" parent="1">
                    <mxGeometry x="-310" y="454.9" width="186" height="106" as="geometry"/>
                </mxCell>
                <mxCell id="20" value="&lt;b&gt;&lt;font style=&quot;font-size: 20px;&quot; face=&quot;Tahoma&quot;&gt;HTTP Request&lt;br&gt;www.foobar.com&lt;br&gt;&lt;/font&gt;&lt;/b&gt;" style="text;html=1;align=center;verticalAlign=middle;resizable=0;points=[];autosize=1;strokeColor=none;fillColor=none;rounded=1;" vertex="1" parent="1">
                    <mxGeometry x="-550" y="-280" width="200" height="60" as="geometry"/>
                </mxCell>
                <mxCell id="21" value="&lt;b&gt;&lt;font style=&quot;font-size: 20px;&quot; face=&quot;Tahoma&quot;&gt;HTTP Response:&lt;br&gt;Static File&lt;br&gt;&lt;/font&gt;&lt;/b&gt;" style="text;html=1;align=center;verticalAlign=middle;resizable=0;points=[];autosize=1;strokeColor=none;fillColor=none;rounded=1;" vertex="1" parent="1">
                    <mxGeometry x="-5" y="477.9" width="190" height="60" as="geometry"/>
                </mxCell>
                <mxCell id="22" value="&lt;b&gt;&lt;font style=&quot;font-size: 20px;&quot; face=&quot;Tahoma&quot;&gt;Name: www.foobar.com&lt;br&gt;IP Adress: 8.8.8.8&lt;br&gt;&lt;/font&gt;&lt;/b&gt;" style="text;html=1;align=left;verticalAlign=middle;resizable=0;points=[];autosize=1;strokeColor=none;fillColor=none;rounded=1;" vertex="1" parent="1">
                    <mxGeometry x="130" y="-678" width="270" height="60" as="geometry"/>
                </mxCell>
                <mxCell id="23" value="&lt;b&gt;&lt;font style=&quot;font-size: 20px;&quot; face=&quot;Tahoma&quot;&gt;INTERNET&lt;/font&gt;&lt;/b&gt;" style="text;html=1;align=center;verticalAlign=middle;resizable=0;points=[];autosize=1;strokeColor=none;fillColor=none;rounded=1;" vertex="1" parent="1">
                    <mxGeometry x="-270" y="564.9" width="130" height="40" as="geometry"/>
                </mxCell>
                <mxCell id="24" value="" style="whiteSpace=wrap;html=1;aspect=fixed;strokeWidth=10;fontFamily=Tahoma;fontSize=20;fillColor=none;rounded=1;" vertex="1" parent="1">
                    <mxGeometry x="780" y="10.000000000000028" width="513.47" height="513.47" as="geometry"/>
                </mxCell>
                <mxCell id="25" value="" style="shape=mxgraph.cisco.servers.file_server;html=1;pointerEvents=1;dashed=0;fillColor=#036897;strokeColor=#ffffff;strokeWidth=2;verticalLabelPosition=bottom;verticalAlign=top;align=center;outlineConnect=0;rounded=1;" vertex="1" parent="1">
                    <mxGeometry x="1111.09" y="141.53" width="87.83" height="118.47" as="geometry"/>
                </mxCell>
                <mxCell id="26" value="" style="shape=mxgraph.cisco.storage.relational_database;html=1;pointerEvents=1;dashed=0;fillColor=#036897;strokeColor=#ffffff;strokeWidth=2;verticalLabelPosition=bottom;verticalAlign=top;align=center;outlineConnect=0;fontFamily=Helvetica;fontSize=12;fontColor=default;rounded=1;" vertex="1" parent="1">
                    <mxGeometry x="1100" y="337" width="80" height="93.33" as="geometry"/>
                </mxCell>
                <mxCell id="27" value="" style="shape=mxgraph.cisco.servers.standard_host;html=1;pointerEvents=1;dashed=0;fillColor=#036897;strokeColor=#ffffff;strokeWidth=2;verticalLabelPosition=bottom;verticalAlign=top;align=center;outlineConnect=0;rounded=1;" vertex="1" parent="1">
                    <mxGeometry x="840" y="163.21" width="73" height="105.26" as="geometry"/>
                </mxCell>
                <mxCell id="28" value="&lt;b&gt;&lt;font style=&quot;font-size: 20px;&quot; face=&quot;Tahoma&quot;&gt;WEB SERVER&lt;br&gt;(NGINX)&lt;br&gt;&lt;/font&gt;&lt;/b&gt;" style="text;html=1;align=center;verticalAlign=middle;resizable=0;points=[];autosize=1;strokeColor=none;fillColor=none;rounded=1;" vertex="1" parent="1">
                    <mxGeometry x="796.5" y="268.47" width="160" height="60" as="geometry"/>
                </mxCell>
                <mxCell id="29" value="&lt;font face=&quot;Tahoma&quot;&gt;&lt;span style=&quot;font-size: 20px;&quot;&gt;&lt;b&gt;DATABASE&lt;br&gt;(MySQL)&lt;br&gt;&lt;/b&gt;&lt;/span&gt;&lt;/font&gt;" style="text;html=1;align=center;verticalAlign=middle;resizable=0;points=[];autosize=1;strokeColor=none;fillColor=none;rounded=1;" vertex="1" parent="1">
                    <mxGeometry x="1075" y="420" width="130" height="60" as="geometry"/>
                </mxCell>
                <mxCell id="30" value="&lt;b&gt;&lt;font style=&quot;font-size: 20px;&quot; face=&quot;Tahoma&quot;&gt;APPLICATION SERVER&lt;br&gt;(Python 3.12)&lt;br&gt;&lt;/font&gt;&lt;/b&gt;" style="text;html=1;align=center;verticalAlign=middle;resizable=0;points=[];autosize=1;strokeColor=none;fillColor=none;rounded=1;" vertex="1" parent="1">
                    <mxGeometry x="1030" y="260" width="250" height="60" as="geometry"/>
                </mxCell>
                <mxCell id="31" value="&lt;b&gt;&lt;font style=&quot;font-size: 20px;&quot; face=&quot;Tahoma&quot;&gt;CODE BASE&lt;/font&gt;&lt;/b&gt;" style="text;html=1;align=center;verticalAlign=middle;resizable=0;points=[];autosize=1;strokeColor=none;fillColor=none;rounded=1;" vertex="1" parent="1">
                    <mxGeometry x="796.5" y="430" width="140" height="40" as="geometry"/>
                </mxCell>
                <mxCell id="32" value="" style="line;strokeWidth=4;direction=west;html=1;perimeter=backbonePerimeter;points=[];outlineConnect=0;fontFamily=Tahoma;fontSize=20;fillColor=none;rotation=0;rounded=1;" vertex="1" parent="1">
                    <mxGeometry x="780" y="90.00000000000003" width="510" height="10" as="geometry"/>
                </mxCell>
                <mxCell id="33" value="" style="aspect=fixed;pointerEvents=1;shadow=0;dashed=0;html=1;strokeColor=none;labelPosition=center;verticalLabelPosition=bottom;verticalAlign=top;align=center;fillColor=#00188D;shape=mxgraph.mscae.enterprise.folder;strokeWidth=10;fontFamily=Tahoma;fontSize=20;rounded=1;" vertex="1" parent="1">
                    <mxGeometry x="820.5700000000002" y="344.16999999999996" width="91.86" height="79" as="geometry"/>
                </mxCell>
                <mxCell id="34" value="&lt;b&gt;&lt;font style=&quot;font-size: 29px;&quot; face=&quot;Tahoma&quot;&gt;8.8.8.8&lt;/font&gt;&lt;/b&gt;" style="text;html=1;align=center;verticalAlign=middle;resizable=0;points=[];autosize=1;strokeColor=none;fillColor=none;rounded=1;" vertex="1" parent="1">
                    <mxGeometry x="863" y="40.00000000000003" width="120" height="50" as="geometry"/>
                </mxCell>
                <mxCell id="36" value="&lt;b&gt;&lt;font style=&quot;font-size: 29px;&quot; face=&quot;Tahoma&quot;&gt;Master&lt;/font&gt;&lt;/b&gt;" style="text;html=1;align=center;verticalAlign=middle;resizable=0;points=[];autosize=1;strokeColor=none;fillColor=none;rounded=1;" vertex="1" parent="1">
                    <mxGeometry x="1095" y="-611.73" width="120" height="50" as="geometry"/>
                </mxCell>
                <mxCell id="37" value="&lt;b&gt;&lt;font style=&quot;font-size: 29px;&quot; face=&quot;Tahoma&quot;&gt;Replica/Slave&lt;/font&gt;&lt;/b&gt;" style="text;html=1;align=center;verticalAlign=middle;resizable=0;points=[];autosize=1;strokeColor=none;fillColor=none;rounded=1;" vertex="1" parent="1">
                    <mxGeometry x="1020" y="28.27000000000001" width="230" height="50" as="geometry"/>
                </mxCell>
                <mxCell id="38" value="" style="outlineConnect=0;dashed=0;verticalLabelPosition=bottom;verticalAlign=top;align=center;html=1;shape=mxgraph.aws3.classic_load_balancer;fillColor=#F58534;gradientColor=none;" vertex="1" parent="1">
                    <mxGeometry x="340" y="-150" width="195.5" height="204" as="geometry"/>
                </mxCell>
                <mxCell id="40" value="&lt;font style=&quot;font-size: 30px;&quot;&gt;Port 80&lt;/font&gt;" style="text;html=1;align=center;verticalAlign=middle;resizable=0;points=[];autosize=1;strokeColor=none;fillColor=none;rotation=0;fontStyle=1" vertex="1" parent="1">
                    <mxGeometry x="300" y="-330" width="130" height="50" as="geometry"/>
                </mxCell>
                <mxCell id="41" value="" style="edgeStyle=none;orthogonalLoop=1;jettySize=auto;html=1;strokeWidth=5;entryX=0.4;entryY=1.167;entryDx=0;entryDy=0;entryPerimeter=0;" edge="1" parent="1" target="20">
                    <mxGeometry width="100" relative="1" as="geometry">
                        <mxPoint x="-468.72" y="40.20000000000016" as="sourcePoint"/>
                        <mxPoint x="-468.72" y="-129.79999999999984" as="targetPoint"/>
                        <Array as="points"/>
                    </mxGeometry>
                </mxCell>
                <mxCell id="42" value="" style="edgeStyle=none;orthogonalLoop=1;jettySize=auto;html=1;strokeWidth=5;exitX=0.375;exitY=-0.05;exitDx=0;exitDy=0;exitPerimeter=0;" edge="1" parent="1" source="20">
                    <mxGeometry width="100" relative="1" as="geometry">
                        <mxPoint x="-440" y="-340.4" as="sourcePoint"/>
                        <mxPoint x="-310" y="-620" as="targetPoint"/>
                        <Array as="points">
                            <mxPoint x="-475" y="-620"/>
                        </Array>
                    </mxGeometry>
                </mxCell>
                <mxCell id="43" value="" style="edgeStyle=none;orthogonalLoop=1;jettySize=auto;html=1;strokeWidth=5;" edge="1" parent="1">
                    <mxGeometry width="100" relative="1" as="geometry">
                        <mxPoint x="-75" y="-618.79" as="sourcePoint"/>
                        <mxPoint x="25" y="-618.79" as="targetPoint"/>
                        <Array as="points"/>
                    </mxGeometry>
                </mxCell>
                <mxCell id="45" value="" style="edgeStyle=none;orthogonalLoop=1;jettySize=auto;html=1;strokeWidth=5;" edge="1" parent="1">
                    <mxGeometry width="100" relative="1" as="geometry">
                        <mxPoint x="-330" y="512" as="sourcePoint"/>
                        <mxPoint x="-470" y="268" as="targetPoint"/>
                        <Array as="points">
                            <mxPoint x="-470" y="512"/>
                        </Array>
                    </mxGeometry>
                </mxCell>
                <mxCell id="46" value="V" style="edgeStyle=none;orthogonalLoop=1;jettySize=auto;html=1;strokeWidth=5;" edge="1" parent="1">
                    <mxGeometry x="0.0468" y="-47" width="100" relative="1" as="geometry">
                        <mxPoint x="450" y="80" as="sourcePoint"/>
                        <mxPoint x="-90" y="547" as="targetPoint"/>
                        <Array as="points">
                            <mxPoint x="450" y="548"/>
                        </Array>
                        <mxPoint x="1" as="offset"/>
                    </mxGeometry>
                </mxCell>
                <mxCell id="47" value="" style="shape=waypoint;sketch=0;size=6;pointerEvents=1;points=[];fillColor=none;resizable=0;rotatable=0;perimeter=centerPerimeter;snapToPoint=1;fontSize=30;" vertex="1" parent="1">
                    <mxGeometry x="230" y="-660" width="20" height="20" as="geometry"/>
                </mxCell>
                <mxCell id="49" value="" style="edgeStyle=none;orthogonalLoop=1;jettySize=auto;html=1;fontSize=30;strokeWidth=5;" edge="1" parent="1">
                    <mxGeometry width="100" relative="1" as="geometry">
                        <mxPoint x="140" y="-600" as="sourcePoint"/>
                        <mxPoint x="450" y="-180" as="targetPoint"/>
                        <Array as="points">
                            <mxPoint x="450" y="-600"/>
                        </Array>
                    </mxGeometry>
                </mxCell>
                <mxCell id="50" value="" style="edgeStyle=none;orthogonalLoop=1;jettySize=auto;html=1;endArrow=classic;startArrow=classic;endSize=8;startSize=8;strokeWidth=5;fontSize=30;" edge="1" parent="1">
                    <mxGeometry width="100" relative="1" as="geometry">
                        <mxPoint x="535.5" y="-134.13" as="sourcePoint"/>
                        <mxPoint x="708.5" y="-245.86" as="targetPoint"/>
                        <Array as="points"/>
                    </mxGeometry>
                </mxCell>
                <mxCell id="51" value="" style="edgeStyle=none;orthogonalLoop=1;jettySize=auto;html=1;endArrow=classic;startArrow=classic;endSize=8;startSize=8;strokeWidth=5;fontSize=30;" edge="1" parent="1">
                    <mxGeometry width="100" relative="1" as="geometry">
                        <mxPoint x="520" y="40" as="sourcePoint"/>
                        <mxPoint x="720" y="149.14" as="targetPoint"/>
                        <Array as="points"/>
                    </mxGeometry>
                </mxCell>
                <mxCell id="53" value="" style="edgeStyle=none;orthogonalLoop=1;jettySize=auto;html=1;strokeWidth=5;exitX=0.553;exitY=1.009;exitDx=0;exitDy=0;exitPerimeter=0;" edge="1" parent="1" source="2" target="24">
                    <mxGeometry width="100" relative="1" as="geometry">
                        <mxPoint x="1060" y="-50" as="sourcePoint"/>
                        <mxPoint x="1160" y="-50" as="targetPoint"/>
                        <Array as="points"/>
                    </mxGeometry>
                </mxCell>
            </root>
        </mxGraphModel>
    </diagram>
</mxfile>